<?xml version="1.0" standalone="no"?>
<!DOCTYPE svg PUBLIC "-//W3C//DTD SVG 20010904//EN"
 "http://www.w3.org/TR/2001/REC-SVG-20010904/DTD/svg10.dtd">
<svg version="1.0" xmlns="http://www.w3.org/2000/svg"
 width="260.000000pt" height="260.000000pt" viewBox="0 0 260.000000 260.000000"
 preserveAspectRatio="xMidYMid meet">
<metadata>
Created by potrace 1.11, written by Peter Selinger 2001-2013
</metadata>
<g transform="translate(0.000000,260.000000) scale(0.100000,-0.100000)"
fill="#000000" stroke="none">
<path d="M1085 2584 c-533 -94 -941 -488 -1060 -1024 -24 -105 -28 -370 -8
-481 81 -445 380 -816 796 -984 165 -67 285 -90 482 -90 177 0 231 7 378 50
231 67 445 206 612 397 55 64 75 88 75 92 0 2 16 28 36 57 84 123 159 319 191
497 8 48 10 344 2 381 -4 20 -10 54 -14 76 -6 42 -22 107 -35 140 -4 11 -18
47 -30 80 -72 190 -214 387 -380 526 -154 130 -382 238 -575 275 -22 4 -47 9
-55 11 -44 12 -342 10 -415 -3z"/>
</g>
</svg>
